<?xml version="1.0" encoding="UTF-8"?>
<svg id="Calque_1" data-name="Calque 1" xmlns="http://www.w3.org/2000/svg" viewBox="0 0 395.59 127.85">
  <defs>
    <style>
      .cls-1 {
        fill: #fff;
      }
    </style>
  </defs>
  <g>
    <path class="cls-1" d="m14.09,80.47c-4.32-2.3-7.74-5.54-10.28-9.73-2.54-4.19-3.81-9.1-3.81-14.73,0-5.11,1.22-9.75,3.67-13.92s5.9-7.48,10.37-9.92c4.46-2.45,9.72-3.67,15.76-3.67,4.11,0,7.65.59,10.62,1.78,2.96,1.19,5.26,2.79,6.89,4.81,1.63,2.02,2.45,4.27,2.45,6.75,0,2.11-.75,3.91-2.25,5.39-1.5,1.48-3.27,2.22-5.31,2.22s-3.92-.75-5.42-2.25c-1.5-1.5-2.25-3.29-2.25-5.36,0-2.19.76-4,2.28-5.45,1.52-1.44,3.32-2.17,5.39-2.17,1.96,0,3.7.69,5.22,2.08,1.52,1.39,2.28,3.23,2.28,5.53,0-2.11-.6-4.03-1.81-5.75-1.2-1.72-2.83-3.1-4.89-4.14-2.06-1.04-4.34-1.56-6.86-1.56-3.67,0-6.84.94-9.5,2.81-2.67,1.87-4.72,4.48-6.14,7.84-1.43,3.35-2.14,7.23-2.14,11.64,0,5.37.91,9.97,2.72,13.78,1.81,3.82,4.2,6.73,7.14,8.73,2.95,2,6.14,3,9.59,3,2.82,0,5.27-.47,7.36-1.42,2.09-.94,3.75-2.1,4.97-3.47l.06.06c-1.89,3.22-4.73,5.79-8.53,7.7-3.8,1.91-8.16,2.86-13.09,2.86-5.34,0-10.16-1.15-14.48-3.45Z"/>
    <path class="cls-1" d="m70.67,80.61c-4.61-2.2-8.28-5.37-11-9.5-2.72-4.13-4.08-9.07-4.08-14.81s1.34-10.31,4.03-14.48c2.69-4.17,6.32-7.43,10.89-9.78,4.58-2.35,9.7-3.53,15.37-3.53s10.74,1.1,15.34,3.31c4.59,2.21,8.25,5.36,10.98,9.48,2.72,4.11,4.08,9.04,4.08,14.78s-1.33,10.32-4,14.51c-2.67,4.19-6.29,7.46-10.87,9.81-4.58,2.35-9.7,3.53-15.37,3.53s-10.75-1.1-15.37-3.31Zm21.56-.19c1.65-2.22,2.89-5.38,3.72-9.48.83-4.09,1.25-8.94,1.25-14.53s-.44-10.79-1.31-14.92c-.87-4.13-2.16-7.3-3.86-9.5-1.7-2.2-3.76-3.31-6.17-3.31s-4.55,1.1-6.2,3.31c-1.65,2.2-2.9,5.35-3.75,9.45-.85,4.09-1.28,8.94-1.28,14.53s.44,10.8,1.33,14.95c.89,4.15,2.18,7.33,3.86,9.53,1.69,2.21,3.75,3.31,6.2,3.31s4.55-1.11,6.2-3.33Z"/>
    <path class="cls-1" d="m144.55,44.68c2.48-5.63,4.85-9.7,7.11-12.2,2.26-2.5,4.67-3.75,7.23-3.75,2.26,0,3.96.81,5.11,2.42,1.15,1.61,1.72,3.58,1.72,5.92,0,1.11-.12,2.17-.36,3.17-.24,1-.53,1.8-.86,2.39-.7-.26-1.77-.5-3.2-.72-1.43-.22-2.96-.33-4.58-.33-2.48,0-4.83.29-7.03.86-2.2.57-3.92,1.34-5.14,2.31l.06,31.4c0,1.45.14,2.59.42,3.45.28.85.85,1.53,1.72,2.03.87.5,2.12.95,3.75,1.36v.06h-29.01v-.06c2.3-.52,3.77-1.21,4.42-2.08.65-.87.97-2.32.97-4.36v-38.46c0-1.93-.2-3.22-.61-3.89-.41-.67-1.35-1.3-2.83-1.89l-1.95-.78v-.11l23.06-2.72v16.01Z"/>
    <path class="cls-1" d="m174.4,31.9h-5.45v-.06l23.12-16.73h.06v15.39l10.95-1.11v2.5l-10.95-1.22v39.9c0,2.96.6,5.1,1.81,6.42,1.2,1.32,2.73,1.97,4.58,1.97,1.04,0,2.01-.21,2.92-.64.91-.43,1.64-1.03,2.2-1.81v.06c-.78,1.89-2.41,3.58-4.89,5.08-2.48,1.5-5.5,2.25-9.06,2.25-3.04-.04-5.71-.61-8-1.72-2.3-1.11-4.08-2.83-5.36-5.17-1.28-2.33-1.92-5.28-1.92-8.84V31.9Z"/>
    <path class="cls-1" d="m211.3,80.59c-2.89-2.22-4.33-5.32-4.33-9.28,0-2.67.77-5.04,2.31-7.11,1.54-2.07,4.01-3.88,7.42-5.42,3.41-1.54,7.87-2.82,13.39-3.86l10.84-2.11v.11l-4,.94c-3.15.74-5.63,1.8-7.45,3.17-1.82,1.37-3.1,3.03-3.86,4.97-.76,1.95-1.14,4.16-1.14,6.64,0,3.45.75,6.07,2.25,7.86,1.5,1.8,3.36,2.7,5.59,2.7,1.78,0,3.29-.39,4.53-1.17,1.24-.78,2.2-2.02,2.86-3.72v-29.07c0-5.48-1.22-9.4-3.67-11.75-2.45-2.35-5.97-3.53-10.56-3.53-2.78,0-5.39.51-7.84,1.53-2.45,1.02-4.42,2.4-5.92,4.14-1.5,1.74-2.27,3.69-2.31,5.84h-.06c.07-2.07.87-3.85,2.39-5.34,1.52-1.48,3.2-2.22,5.06-2.22,2.19,0,4.03.74,5.53,2.22,1.5,1.48,2.25,3.33,2.25,5.56s-.76,3.92-2.28,5.42c-1.52,1.5-3.3,2.25-5.34,2.25s-3.87-.75-5.39-2.25c-1.52-1.5-2.28-3.31-2.28-5.42,0-2.41.9-4.6,2.7-6.59,1.8-1.98,4.43-3.58,7.89-4.78,3.46-1.2,7.66-1.81,12.59-1.81,7.59,0,13.56,1.41,17.9,4.22,4.33,2.82,6.5,7.24,6.5,13.28v28.57c0,2.33.49,4.05,1.47,5.14.98,1.09,2.23,1.64,3.75,1.64.63,0,1.2-.07,1.72-.22v.06c-1.04.7-2.57,1.3-4.59,1.78-2.02.48-4.16.72-6.42.72s-4.18-.33-6.09-1c-1.91-.67-3.5-1.69-4.78-3.08-1.28-1.39-2.03-3.14-2.25-5.25-.37,1.96-1.36,3.66-2.97,5.09-1.61,1.43-3.66,2.53-6.14,3.31-2.48.78-5.24,1.17-8.28,1.17-4.45,0-8.11-1.11-11-3.33Z"/>
    <path class="cls-1" d="m270.66,41.1c2.33-4.17,5.41-7.31,9.23-9.42,3.82-2.11,7.97-3.17,12.45-3.17,3.59,0,6.68.7,9.25,2.11,2.57,1.41,4.29,3.33,5.14,5.78V9.39c0-1.93-.19-3.2-.58-3.83-.39-.63-1.34-1.28-2.86-1.95l-1.95-.78v-.06l23.12-2.78v74.53c0,1.93.19,3.21.56,3.86.37.65,1.33,1.31,2.89,1.97l1.89.72v.11l-23.06,2.39v-10.56c-1.3,3.48-3.5,6.17-6.61,8.06s-6.74,2.83-10.89,2.83-7.67-1.05-11-3.14c-3.33-2.09-6.01-5.18-8.03-9.25-2.02-4.08-3.03-9.06-3.03-14.95s1.17-11.31,3.5-15.48Zm16.51,26.45c1.07,3.54,2.53,6.24,4.36,8.11,1.83,1.87,3.9,2.81,6.2,2.81,2.15,0,3.96-.49,5.42-1.47,1.46-.98,2.66-2.32,3.58-4.03v-36.4c-.63-1.52-1.7-2.79-3.22-3.81-1.52-1.02-3.17-1.53-4.95-1.53-2.59,0-4.87.92-6.84,2.75-1.96,1.83-3.48,4.49-4.56,7.98-1.08,3.48-1.61,7.73-1.61,12.73s.54,9.33,1.61,12.87Z"/>
    <path class="cls-1" d="m349.99,80.61c-4.61-2.2-8.28-5.37-11-9.5-2.72-4.13-4.08-9.07-4.08-14.81s1.34-10.31,4.03-14.48c2.69-4.17,6.32-7.43,10.89-9.78,4.58-2.35,9.7-3.53,15.37-3.53s10.74,1.1,15.34,3.31c4.59,2.21,8.25,5.36,10.98,9.48,2.72,4.11,4.08,9.04,4.08,14.78s-1.33,10.32-4,14.51c-2.67,4.19-6.29,7.46-10.87,9.81-4.58,2.35-9.7,3.53-15.37,3.53s-10.75-1.1-15.37-3.31Zm21.56-.19c1.65-2.22,2.89-5.38,3.72-9.48.83-4.09,1.25-8.94,1.25-14.53s-.44-10.79-1.31-14.92c-.87-4.13-2.16-7.3-3.86-9.5-1.7-2.2-3.76-3.31-6.17-3.31s-4.55,1.1-6.2,3.31c-1.65,2.2-2.9,5.35-3.75,9.45-.85,4.09-1.28,8.94-1.28,14.53s.44,10.8,1.33,14.95c.89,4.15,2.18,7.33,3.86,9.53,1.69,2.21,3.75,3.31,6.2,3.31s4.55-1.11,6.2-3.33Z"/>
  </g>
  <g>
    <path class="cls-1" d="m106.92,109.65c1.4,0,2.6.2,3.59.61.99.41,1.83.99,2.5,1.73.68.75,1.19,1.6,1.54,2.55l-3.54,1.4c-.3-1.07-.79-1.9-1.45-2.47-.67-.57-1.53-.86-2.61-.86s-1.95.24-2.69.72c-.75.48-1.31,1.17-1.7,2.08-.38.91-.58,2.03-.58,3.36s.2,2.42.6,3.32c.4.91.97,1.6,1.71,2.06.75.47,1.63.7,2.66.7.79,0,1.48-.13,2.06-.4.58-.27,1.07-.65,1.45-1.16.38-.5.65-1.11.79-1.84l3.4,1.15c-.33,1.05-.83,1.97-1.52,2.75-.69.78-1.55,1.39-2.57,1.82-1.03.43-2.21.65-3.54.65-1.73,0-3.25-.36-4.58-1.08s-2.36-1.77-3.1-3.13c-.74-1.36-1.1-2.99-1.1-4.88s.37-3.52,1.1-4.88c.73-1.37,1.76-2.41,3.08-3.13,1.32-.72,2.82-1.08,4.5-1.08Z"/>
    <path class="cls-1" d="m126.62,109.65c1.7,0,3.21.36,4.52,1.08,1.31.72,2.33,1.77,3.06,3.13.73,1.36,1.1,2.99,1.1,4.88s-.37,3.52-1.1,4.88c-.74,1.37-1.76,2.41-3.06,3.13-1.31.72-2.81,1.08-4.52,1.08s-3.21-.36-4.52-1.08c-1.31-.72-2.33-1.77-3.08-3.13-.75-1.36-1.12-2.99-1.12-4.88s.37-3.52,1.12-4.88c.75-1.37,1.77-2.41,3.08-3.13,1.31-.72,2.81-1.08,4.52-1.08Zm0,2.94c-1.05,0-1.94.24-2.68.72-.73.48-1.3,1.17-1.7,2.08-.4.91-.6,2.03-.6,3.36s.2,2.42.6,3.34c.4.92.96,1.62,1.7,2.1.74.48,1.63.72,2.68.72s1.94-.24,2.66-.72c.72-.48,1.28-1.18,1.68-2.1.4-.92.6-2.04.6-3.34s-.2-2.45-.6-3.36c-.4-.91-.96-1.6-1.68-2.08-.72-.48-1.61-.72-2.66-.72Z"/>
    <path class="cls-1" d="m150.42,110v2.94h-12.6v-2.94h12.6Zm-3.22-8.12c.72,0,1.38.08,1.98.23.59.15,1.04.36,1.35.61l-.7,2.69c-.26-.16-.55-.29-.88-.37-.33-.08-.7-.12-1.12-.12-.96,0-1.71.22-2.26.67-.55.44-.82,1.17-.82,2.17v2.56l.1.94v16.24h-3.75v-20.02c0-.89.13-1.68.4-2.38.27-.7.67-1.29,1.21-1.77.54-.48,1.18-.84,1.94-1.08.76-.25,1.6-.37,2.54-.37Zm17.08,8.12v2.94h-12.6v-2.94h12.6Zm-3.22-8.12c.72,0,1.38.08,1.98.23.59.15,1.04.36,1.35.61l-.7,2.69c-.26-.16-.55-.29-.88-.37-.33-.08-.7-.12-1.12-.12-.96,0-1.71.22-2.26.67-.55.44-.82,1.17-.82,2.17v2.56l.1.94v16.24h-3.74v-20.02c0-.89.13-1.68.4-2.38.27-.7.67-1.29,1.21-1.77.54-.48,1.18-.84,1.94-1.08.76-.25,1.6-.37,2.54-.37Z"/>
    <path class="cls-1" d="m174.93,127.85c-1.75,0-3.29-.36-4.62-1.08s-2.36-1.77-3.1-3.13c-.74-1.36-1.1-2.99-1.1-4.88s.37-3.52,1.1-4.88c.73-1.37,1.76-2.41,3.06-3.13,1.31-.72,2.79-1.08,4.44-1.08s3.15.35,4.34,1.05c1.19.7,2.1,1.66,2.73,2.87.63,1.21.95,2.59.95,4.13,0,.42-.01.82-.04,1.19-.02.37-.06.7-.1.98h-14.07v-2.87h12.42l-1.85.56c0-1.59-.4-2.81-1.19-3.66-.79-.85-1.88-1.28-3.25-1.28-1,0-1.88.23-2.62.7-.75.47-1.32,1.16-1.72,2.08-.4.92-.59,2.05-.59,3.38s.21,2.42.63,3.32c.42.91,1.02,1.6,1.79,2.06.77.47,1.68.7,2.73.7,1.17,0,2.11-.22,2.83-.67.72-.44,1.29-1.06,1.71-1.85l2.98,1.4c-.42.84-.99,1.57-1.7,2.19-.71.62-1.56,1.09-2.54,1.42-.98.33-2.05.49-3.22.49Z"/>
    <path class="cls-1" d="m195.15,127.85c-1.75,0-3.29-.36-4.62-1.08s-2.36-1.77-3.1-3.13c-.74-1.36-1.1-2.99-1.1-4.88s.37-3.52,1.1-4.88c.73-1.37,1.76-2.41,3.06-3.13,1.31-.72,2.79-1.08,4.44-1.08s3.15.35,4.34,1.05c1.19.7,2.1,1.66,2.73,2.87.63,1.21.95,2.59.95,4.13,0,.42-.01.82-.04,1.19-.02.37-.06.7-.1.98h-14.07v-2.87h12.42l-1.85.56c0-1.59-.4-2.81-1.19-3.66-.79-.85-1.88-1.28-3.25-1.28-1,0-1.88.23-2.62.7-.75.47-1.32,1.16-1.72,2.08-.4.92-.59,2.05-.59,3.38s.21,2.42.63,3.32c.42.91,1.02,1.6,1.79,2.06.77.47,1.68.7,2.73.7,1.17,0,2.11-.22,2.83-.67.72-.44,1.29-1.06,1.71-1.85l2.98,1.4c-.42.84-.99,1.57-1.7,2.19-.71.62-1.56,1.09-2.54,1.42-.98.33-2.05.49-3.22.49Z"/>
    <path class="cls-1" d="m225.18,127.85c-1.56,0-2.91-.26-4.04-.79s-2.01-1.25-2.62-2.19c-.62-.93-.93-2.03-.93-3.29,0-.72.1-1.42.3-2.08s.52-1.31.98-1.92,1.08-1.19,1.87-1.72c.79-.52,1.79-.99,2.98-1.38l1.36-.6c.93-.54,1.69-1.03,2.26-1.47.57-.44.99-.91,1.26-1.4.27-.49.4-1.06.4-1.72,0-.77-.23-1.36-.7-1.78-.47-.42-1.08-.63-1.85-.63-.91,0-1.59.25-2.05.75-.46.5-.68,1.1-.68,1.8,0,.42.06.83.19,1.23.13.4.39.89.77,1.47.39.58.95,1.35,1.7,2.29.75.94,1.76,2.19,3.04,3.73,1.26,1.52,2.32,2.75,3.17,3.69.85.94,1.58,1.66,2.19,2.13.61.48,1.17.79,1.7.95s1.11.22,1.77.19l-.63,2.73c-.75,0-1.44-.08-2.08-.23-.64-.15-1.33-.48-2.06-1-.74-.51-1.6-1.28-2.59-2.31-.99-1.03-2.21-2.39-3.66-4.09-1.35-1.59-2.48-2.92-3.38-4.01-.9-1.08-1.6-2.01-2.1-2.77-.5-.76-.86-1.45-1.07-2.06-.21-.62-.31-1.28-.31-1.98,0-.86.22-1.71.67-2.54.44-.83,1.11-1.51,2.01-2.03.9-.52,2.07-.79,3.52-.79,1.17,0,2.16.21,2.98.63.82.42,1.45,1,1.89,1.73s.67,1.58.67,2.54c0,.89-.16,1.71-.49,2.48-.33.77-.9,1.5-1.73,2.21-.83.7-2,1.39-3.52,2.06l-1.16.49c-1.07.54-1.91,1.05-2.52,1.54-.61.49-1.04,1.01-1.29,1.56-.26.55-.38,1.21-.38,1.98s.2,1.48.61,2.05c.41.57.96,1.01,1.66,1.31.7.3,1.48.46,2.35.46,1.24,0,2.29-.22,3.15-.65.86-.43,1.67-1.03,2.42-1.8l.49-.52c.56-.89,1-1.89,1.31-3.01s.41-2.39.3-3.81l2.9.17c.05,1.49-.15,2.94-.58,4.34-.43,1.4-1.09,2.66-1.98,3.78l-.7.77c-.84,1.07-1.9,1.92-3.19,2.55-1.28.63-2.8.95-4.55.95Z"/>
    <path class="cls-1" d="m260.04,109.65c1.4,0,2.6.2,3.59.61.99.41,1.83.99,2.5,1.73.68.75,1.19,1.6,1.54,2.55l-3.54,1.4c-.3-1.07-.79-1.9-1.45-2.47-.67-.57-1.53-.86-2.61-.86s-1.95.24-2.69.72c-.75.48-1.31,1.17-1.7,2.08-.38.91-.58,2.03-.58,3.36s.2,2.42.6,3.32c.4.91.97,1.6,1.71,2.06.75.47,1.63.7,2.66.7.79,0,1.48-.13,2.06-.4.58-.27,1.07-.65,1.45-1.16.38-.5.65-1.11.79-1.84l3.4,1.15c-.33,1.05-.83,1.97-1.52,2.75-.69.78-1.55,1.39-2.57,1.82-1.03.43-2.21.65-3.54.65-1.73,0-3.25-.36-4.58-1.08s-2.36-1.77-3.1-3.13c-.74-1.36-1.1-2.99-1.1-4.88s.37-3.52,1.1-4.88c.73-1.37,1.76-2.41,3.08-3.13,1.32-.72,2.82-1.08,4.5-1.08Z"/>
    <path class="cls-1" d="m279.75,109.65c1.7,0,3.21.36,4.52,1.08,1.31.72,2.33,1.77,3.06,3.13.73,1.36,1.1,2.99,1.1,4.88s-.37,3.52-1.1,4.88c-.74,1.37-1.76,2.41-3.06,3.13-1.31.72-2.81,1.08-4.52,1.08s-3.21-.36-4.52-1.08c-1.31-.72-2.33-1.77-3.08-3.13-.75-1.36-1.12-2.99-1.12-4.88s.37-3.52,1.12-4.88c.75-1.37,1.77-2.41,3.08-3.13,1.31-.72,2.81-1.08,4.52-1.08Zm0,2.94c-1.05,0-1.94.24-2.68.72-.73.48-1.3,1.17-1.7,2.08-.4.91-.6,2.03-.6,3.36s.2,2.42.6,3.34c.4.92.96,1.62,1.7,2.1.74.48,1.63.72,2.68.72s1.94-.24,2.66-.72c.72-.48,1.28-1.18,1.68-2.1.4-.92.6-2.04.6-3.34s-.2-2.45-.6-3.36c-.4-.91-.96-1.6-1.68-2.08-.72-.48-1.61-.72-2.66-.72Z"/>
    <path class="cls-1" d="m294.38,122.77c.79,0,1.43.23,1.91.68.48.46.72,1.07.72,1.84s-.24,1.39-.72,1.85c-.48.47-1.11.7-1.91.7s-1.46-.23-1.94-.7c-.48-.47-.72-1.08-.72-1.85s.24-1.38.72-1.84c.48-.46,1.13-.68,1.94-.68Z"/>
  </g>
</svg>